<?xml version="1.0" encoding="UTF-8" standalone="no"?>
<svg
   xmlns:dc="http://purl.org/dc/elements/1.1/"
   xmlns:cc="http://creativecommons.org/ns#"
   xmlns:rdf="http://www.w3.org/1999/02/22-rdf-syntax-ns#"
   xmlns:svg="http://www.w3.org/2000/svg"
   xmlns="http://www.w3.org/2000/svg"
   xmlns:sodipodi="http://sodipodi.sourceforge.net/DTD/sodipodi-0.dtd"
   xmlns:inkscape="http://www.inkscape.org/namespaces/inkscape"
   height="100mm"
   version="1.2"
   viewBox="0 0 100 100"
   width="100mm"
   id="svg2"
   inkscape:version="0.91 r13725"
   sodipodi:docname="bahtinovMask_100.0mm_spacing1.0mm_angle20.0deg.svg">
  <metadata
     id="metadata12">
    <rdf:RDF>
      <cc:Work
         rdf:about="">
        <dc:format>image/svg+xml</dc:format>
        <dc:type
           rdf:resource="http://purl.org/dc/dcmitype/StillImage" />
      </cc:Work>
    </rdf:RDF>
  </metadata>
  <sodipodi:namedview
     pagecolor="#ffffff"
     bordercolor="#666666"
     borderopacity="1"
     objecttolerance="10"
     gridtolerance="10"
     guidetolerance="10"
     inkscape:pageopacity="0"
     inkscape:pageshadow="2"
     inkscape:window-width="1288"
     inkscape:window-height="960"
     id="namedview10"
     showgrid="false"
     inkscape:zoom="1.7375667"
     inkscape:cx="175.08756"
     inkscape:cy="170.86858"
     inkscape:window-x="0"
     inkscape:window-y="0"
     inkscape:window-maximized="0"
     inkscape:current-layer="svg2" />
  <defs
     id="defs4" />
  <path
     style="fill:none;stroke:#0000ff;stroke-width:0.7086615"
     d="M 354.33073 176.46198 L 354.33073 176.46198 "
     id="path4858"
     transform="scale(0.2822222,0.2822222)" />
  <path
     style="fill:none;stroke:#0000ff;stroke-width:0.7086615"
     d="M 354.33073 177.86875 L 352.39819 177.16537 L 354.33073 176.46198 "
     id="path4856"
     transform="scale(0.2822222,0.2822222)" />
  <path
     style="fill:none;stroke:#0000ff;stroke-width:0.7086615"
     d="M 354.33073 177.86875 L 354.33073 177.86875 "
     id="path4854"
     transform="scale(0.2822222,0.2822222)" />
  <path
     style="fill:none;stroke:#0000ff;stroke-width:0.7086615"
     d="M 354.33073 172.91867 L 354.33073 172.91867 "
     id="path4852"
     transform="scale(0.2822222,0.2822222)" />
  <path
     style="fill:none;stroke:#0000ff;stroke-width:0.7086615"
     d="M 354.33073 181.41206 L 342.66303 177.16537 L 354.33073 172.91867 "
     id="path4850"
     transform="scale(0.2822222,0.2822222)" />
  <path
     style="fill:none;stroke:#0000ff;stroke-width:0.7086615"
     d="M 354.33073 181.41206 L 354.33073 181.41206 "
     id="path4848"
     transform="scale(0.2822222,0.2822222)" />
  <path
     style="fill:none;stroke:#0000ff;stroke-width:0.7086615"
     d="M 354.33073 169.37536 L 354.33073 169.37536 "
     id="path4846"
     transform="scale(0.2822222,0.2822222)" />
  <path
     style="fill:none;stroke:#0000ff;stroke-width:0.7086615"
     d="M 354.33073 184.95537 L 332.92788 177.16537 L 354.33073 169.37536 "
     id="path4844"
     transform="scale(0.2822222,0.2822222)" />
  <path
     style="fill:none;stroke:#0000ff;stroke-width:0.7086615"
     d="M 354.33073 184.95537 L 354.33073 184.95537 "
     id="path4842"
     transform="scale(0.2822222,0.2822222)" />
  <path
     style="fill:none;stroke:#0000ff;stroke-width:0.7086615"
     d="M 354.33073 165.83205 L 354.33073 165.83205 "
     id="path4840"
     transform="scale(0.2822222,0.2822222)" />
  <path
     style="fill:none;stroke:#0000ff;stroke-width:0.7086615"
     d="M 354.33073 188.49868 L 323.19272 177.16537 L 354.33073 165.83205 "
     id="path4838"
     transform="scale(0.2822222,0.2822222)" />
  <path
     style="fill:none;stroke:#0000ff;stroke-width:0.7086615"
     d="M 354.33073 188.49868 L 354.33073 188.49868 "
     id="path4836"
     transform="scale(0.2822222,0.2822222)" />
  <path
     style="fill:none;stroke:#0000ff;stroke-width:0.7086615"
     d="M 354.33073 162.28875 L 354.33073 162.28875 "
     id="path4834"
     transform="scale(0.2822222,0.2822222)" />
  <path
     style="fill:none;stroke:#0000ff;stroke-width:0.7086615"
     d="M 354.33073 192.04198 L 313.45756 177.16537 L 354.33073 162.28875 "
     id="path4832"
     transform="scale(0.2822222,0.2822222)" />
  <path
     style="fill:none;stroke:#0000ff;stroke-width:0.7086615"
     d="M 354.33073 192.04198 L 354.33073 192.04198 "
     id="path4830"
     transform="scale(0.2822222,0.2822222)" />
  <path
     style="fill:none;stroke:#0000ff;stroke-width:0.7086615"
     d="M 354.33073 158.74544 L 354.33073 158.74544 "
     id="path4828"
     transform="scale(0.2822222,0.2822222)" />
  <path
     style="fill:none;stroke:#0000ff;stroke-width:0.7086615"
     d="M 354.33073 195.58529 L 303.7224 177.16537 L 354.33073 158.74544 "
     id="path4826"
     transform="scale(0.2822222,0.2822222)" />
  <path
     style="fill:none;stroke:#0000ff;stroke-width:0.7086615"
     d="M 354.33073 195.58529 L 354.33073 195.58529 "
     id="path4824"
     transform="scale(0.2822222,0.2822222)" />
  <path
     style="fill:none;stroke:#0000ff;stroke-width:0.7086615"
     d="M 354.33073 155.20213 L 354.33073 155.20213 "
     id="path4822"
     transform="scale(0.2822222,0.2822222)" />
  <path
     style="fill:none;stroke:#0000ff;stroke-width:0.7086615"
     d="M 354.33073 199.1286 L 293.98725 177.16537 L 354.33073 155.20213 "
     id="path4820"
     transform="scale(0.2822222,0.2822222)" />
  <path
     style="fill:none;stroke:#0000ff;stroke-width:0.7086615"
     d="M 354.33073 199.1286 L 354.33073 199.1286 "
     id="path4818"
     transform="scale(0.2822222,0.2822222)" />
  <path
     style="fill:none;stroke:#0000ff;stroke-width:0.7086615"
     d="M 354.33073 151.65883 L 354.33073 151.65883 "
     id="path4816"
     transform="scale(0.2822222,0.2822222)" />
  <path
     style="fill:none;stroke:#0000ff;stroke-width:0.7086615"
     d="M 354.33073 202.67191 L 284.25209 177.16537 L 354.33073 151.65883 "
     id="path4814"
     transform="scale(0.2822222,0.2822222)" />
  <path
     style="fill:none;stroke:#0000ff;stroke-width:0.7086615"
     d="M 354.33073 202.67191 L 354.33073 202.67191 "
     id="path4812"
     transform="scale(0.2822222,0.2822222)" />
  <path
     style="fill:none;stroke:#0000ff;stroke-width:0.7086615"
     d="M 354.33073 148.11552 L 354.33073 148.11552 "
     id="path4810"
     transform="scale(0.2822222,0.2822222)" />
  <path
     style="fill:none;stroke:#0000ff;stroke-width:0.7086615"
     d="M 354.33073 206.21521 L 274.51693 177.16537 L 354.33073 148.11552 "
     id="path4808"
     transform="scale(0.2822222,0.2822222)" />
  <path
     style="fill:none;stroke:#0000ff;stroke-width:0.7086615"
     d="M 354.33073 206.21521 L 354.33073 206.21521 "
     id="path4806"
     transform="scale(0.2822222,0.2822222)" />
  <path
     style="fill:none;stroke:#0000ff;stroke-width:0.7086615"
     d="M 354.33073 144.57221 L 354.33073 144.57221 "
     id="path4804"
     transform="scale(0.2822222,0.2822222)" />
  <path
     style="fill:none;stroke:#0000ff;stroke-width:0.7086615"
     d="M 354.33073 209.75852 L 264.78178 177.16537 L 354.33073 144.57221 "
     id="path4802"
     transform="scale(0.2822222,0.2822222)" />
  <path
     style="fill:none;stroke:#0000ff;stroke-width:0.7086615"
     d="M 354.33073 209.75852 L 354.33073 209.75852 "
     id="path4800"
     transform="scale(0.2822222,0.2822222)" />
  <path
     style="fill:none;stroke:#0000ff;stroke-width:0.7086615"
     d="M 354.33073 141.0289 L 354.33073 141.0289 "
     id="path4798"
     transform="scale(0.2822222,0.2822222)" />
  <path
     style="fill:none;stroke:#0000ff;stroke-width:0.7086615"
     d="M 354.33073 213.30183 L 255.04662 177.16537 L 354.33073 141.0289 "
     id="path4796"
     transform="scale(0.2822222,0.2822222)" />
  <path
     style="fill:none;stroke:#0000ff;stroke-width:0.7086615"
     d="M 354.33073 213.30183 L 354.33073 213.30183 "
     id="path4794"
     transform="scale(0.2822222,0.2822222)" />
  <path
     style="fill:none;stroke:#0000ff;stroke-width:0.7086615"
     d="M 354.33073 137.4856 L 354.33073 137.4856 "
     id="path4792"
     transform="scale(0.2822222,0.2822222)" />
  <path
     style="fill:none;stroke:#0000ff;stroke-width:0.7086615"
     d="M 354.33073 216.84513 L 245.31146 177.16537 L 354.33073 137.4856 "
     id="path4790"
     transform="scale(0.2822222,0.2822222)" />
  <path
     style="fill:none;stroke:#0000ff;stroke-width:0.7086615"
     d="M 354.33073 216.84513 L 354.33073 216.84513 "
     id="path4788"
     transform="scale(0.2822222,0.2822222)" />
  <path
     style="fill:none;stroke:#0000ff;stroke-width:0.7086615"
     d="M 354.33073 133.94229 L 354.33073 133.94229 "
     id="path4786"
     transform="scale(0.2822222,0.2822222)" />
  <path
     style="fill:none;stroke:#0000ff;stroke-width:0.7086615"
     d="M 354.33073 220.38844 L 235.57631 177.16537 L 354.33073 133.94229 "
     id="path4784"
     transform="scale(0.2822222,0.2822222)" />
  <path
     style="fill:none;stroke:#0000ff;stroke-width:0.7086615"
     d="M 354.33073 220.38844 L 354.33073 220.38844 "
     id="path4782"
     transform="scale(0.2822222,0.2822222)" />
  <path
     style="fill:none;stroke:#0000ff;stroke-width:0.7086615"
     d="M 354.33073 130.39898 L 354.33073 130.39898 "
     id="path4780"
     transform="scale(0.2822222,0.2822222)" />
  <path
     style="fill:none;stroke:#0000ff;stroke-width:0.7086615"
     d="M 354.33073 223.93175 L 225.84115 177.16537 L 354.33073 130.39898 "
     id="path4778"
     transform="scale(0.2822222,0.2822222)" />
  <path
     style="fill:none;stroke:#0000ff;stroke-width:0.7086615"
     d="M 354.33073 223.93175 L 354.33073 223.93175 "
     id="path4776"
     transform="scale(0.2822222,0.2822222)" />
  <path
     style="fill:none;stroke:#0000ff;stroke-width:0.7086615"
     d="M 354.33073 126.85567 L 354.33073 126.85567 "
     id="path4774"
     transform="scale(0.2822222,0.2822222)" />
  <path
     style="fill:none;stroke:#0000ff;stroke-width:0.7086615"
     d="M 354.33073 227.47506 L 216.10599 177.16537 L 354.33073 126.85567 "
     id="path4772"
     transform="scale(0.2822222,0.2822222)" />
  <path
     style="fill:none;stroke:#0000ff;stroke-width:0.7086615"
     d="M 354.33073 227.47506 L 354.33073 227.47506 "
     id="path4770"
     transform="scale(0.2822222,0.2822222)" />
  <path
     style="fill:none;stroke:#0000ff;stroke-width:0.7086615"
     d="M 354.33073 123.31237 L 354.33073 123.31237 "
     id="path4768"
     transform="scale(0.2822222,0.2822222)" />
  <path
     style="fill:none;stroke:#0000ff;stroke-width:0.7086615"
     d="M 354.33073 231.01836 L 206.37083 177.16537 L 354.33073 123.31237 "
     id="path4766"
     transform="scale(0.2822222,0.2822222)" />
  <path
     style="fill:none;stroke:#0000ff;stroke-width:0.7086615"
     d="M 354.33073 231.01836 L 354.33073 231.01836 "
     id="path4764"
     transform="scale(0.2822222,0.2822222)" />
  <path
     style="fill:none;stroke:#0000ff;stroke-width:0.7086615"
     d="M 354.33073 119.76906 L 354.33073 119.76906 "
     id="path4762"
     transform="scale(0.2822222,0.2822222)" />
  <path
     style="fill:none;stroke:#0000ff;stroke-width:0.7086615"
     d="M 354.33073 234.56167 L 196.63568 177.16537 L 354.33073 119.76906 "
     id="path4760"
     transform="scale(0.2822222,0.2822222)" />
  <path
     style="fill:none;stroke:#0000ff;stroke-width:0.7086615"
     d="M 354.33073 234.56167 L 354.33073 234.56167 "
     id="path4758"
     transform="scale(0.2822222,0.2822222)" />
  <path
     style="fill:none;stroke:#0000ff;stroke-width:0.7086615"
     d="M 354.33073 116.22575 L 354.33073 116.22575 "
     id="path4756"
     transform="scale(0.2822222,0.2822222)" />
  <path
     style="fill:none;stroke:#0000ff;stroke-width:0.7086615"
     d="M 354.33073 238.10498 L 186.90052 177.16537 L 354.33073 116.22575 "
     id="path4754"
     transform="scale(0.2822222,0.2822222)" />
  <path
     style="fill:none;stroke:#0000ff;stroke-width:0.7086615"
     d="M 354.33073 238.10498 L 354.33073 238.10498 "
     id="path4752"
     transform="scale(0.2822222,0.2822222)" />
  <path
     style="fill:none;stroke:#0000ff;stroke-width:0.7086615"
     d="M 186.90052 0 L 186.90052 0 "
     id="path4750"
     transform="scale(0.2822222,0.2822222)" />
  <path
     style="fill:none;stroke:#0000ff;stroke-width:0.7086615"
     d="M 7.1601297 3.5433074 L 177.16537 3.5433073 L 186.90052 0 "
     id="path4748"
     transform="scale(0.2822222,0.2822222)" />
  <path
     style="fill:none;stroke:#0000ff;stroke-width:0.7086615"
     d="M 7.1601297 350.78743 L 177.16537 350.78742 L 186.90052 354.33073 "
     id="path4742"
     transform="scale(0.2822222,0.2822222)" />
  <path
     style="fill:none;stroke:#0000ff;stroke-width:0.7086615"
     d="M 196.63568 0 L 196.63568 0 "
     id="path4738"
     transform="scale(0.2822222,0.2822222)" />
  <path
     style="fill:none;stroke:#0000ff;stroke-width:0.7086615"
     d="M 3.6035025 7.0866145 L 177.16537 7.0866146 L 196.63568 0 "
     id="path4736"
     transform="scale(0.2822222,0.2822222)" />
  <path
     style="fill:none;stroke:#0000ff;stroke-width:0.7086615"
     d="M 3.6035025 347.24411 L 177.16537 347.24412 L 196.63568 354.33073 "
     id="path4730"
     transform="scale(0.2822222,0.2822222)" />
  <path
     style="fill:none;stroke:#0000ff;stroke-width:0.7086615"
     d="M 206.37083 0 L 206.37083 0 "
     id="path4726"
     transform="scale(0.2822222,0.2822222)" />
  <path
     style="fill:none;stroke:#0000ff;stroke-width:0.7086615"
     d="M 1.4843695 10.629922 L 177.16537 10.629922 L 206.37083 0 "
     id="path4724"
     transform="scale(0.2822222,0.2822222)" />
  <path
     style="fill:none;stroke:#0000ff;stroke-width:0.7086615"
     d="M 1.4843695 343.70081 L 177.16537 343.70081 L 206.37083 354.33073 "
     id="path4718"
     transform="scale(0.2822222,0.2822222)" />
  <path
     style="fill:none;stroke:#0000ff;stroke-width:0.7086615"
     d="M 216.10599 0 L 216.10599 0 "
     id="path4714"
     transform="scale(0.2822222,0.2822222)" />
  <path
     style="fill:none;stroke:#0000ff;stroke-width:0.7086615"
     d="M 0.35546746 14.173229 L 177.16537 14.173229 L 216.10599 0 "
     id="path4712"
     transform="scale(0.2822222,0.2822222)" />
  <path
     style="fill:none;stroke:#0000ff;stroke-width:0.7086615"
     d="M 0.35546746 340.1575 L 177.16537 340.1575 L 216.10599 354.33073 "
     id="path4706"
     transform="scale(0.2822222,0.2822222)" />
  <path
     style="fill:none;stroke:#0000ff;stroke-width:0.7086615"
     d="M 225.84115 0 L 225.84115 0 "
     id="path4702"
     transform="scale(0.2822222,0.2822222)" />
  <path
     style="fill:none;stroke:#0000ff;stroke-width:0.7086615"
     d="M 0 17.716537 L 177.16537 17.716537 L 225.84115 0 "
     id="path4700"
     transform="scale(0.2822222,0.2822222)" />
  <path
     style="fill:none;stroke:#0000ff;stroke-width:0.7086615"
     d="M 0 336.61419 L 177.16537 336.61419 L 225.84115 354.33073 "
     id="path4694"
     transform="scale(0.2822222,0.2822222)" />
  <path
     style="fill:none;stroke:#0000ff;stroke-width:0.7086615"
     d="M 235.57631 0 L 235.57631 0 "
     id="path4690"
     transform="scale(0.2822222,0.2822222)" />
  <path
     style="fill:none;stroke:#0000ff;stroke-width:0.7086615"
     d="M 0 21.259844 L 177.16537 21.259844 L 235.57631 0 "
     id="path4688"
     transform="scale(0.2822222,0.2822222)" />
  <path
     style="fill:none;stroke:#0000ff;stroke-width:0.7086615"
     d="M 0 333.07089 L 177.16537 333.07089 L 235.57631 354.33073 "
     id="path4682"
     transform="scale(0.2822222,0.2822222)" />
  <path
     style="fill:none;stroke:#0000ff;stroke-width:0.7086615"
     d="M 245.31146 0 L 245.31146 0 "
     id="path4678"
     transform="scale(0.2822222,0.2822222)" />
  <path
     style="fill:none;stroke:#0000ff;stroke-width:0.7086615"
     d="M 0 24.803151 L 177.16537 24.803151 L 245.31146 0 "
     id="path4676"
     transform="scale(0.2822222,0.2822222)" />
  <path
     style="fill:none;stroke:#0000ff;stroke-width:0.7086615"
     d="M 0 329.52758 L 177.16537 329.52758 L 245.31146 354.33073 "
     id="path4670"
     transform="scale(0.2822222,0.2822222)" />
  <path
     style="fill:none;stroke:#0000ff;stroke-width:0.7086615"
     d="M 255.04662 0 L 255.04662 0 "
     id="path4666"
     transform="scale(0.2822222,0.2822222)" />
  <path
     style="fill:none;stroke:#0000ff;stroke-width:0.7086615"
     d="M 0 28.346458 L 177.16537 28.346458 L 255.04662 0 "
     id="path4664"
     transform="scale(0.2822222,0.2822222)" />
  <path
     style="fill:none;stroke:#0000ff;stroke-width:0.7086615"
     d="M 0 325.98427 L 177.16537 325.98427 L 255.04662 354.33073 "
     id="path4658"
     transform="scale(0.2822222,0.2822222)" />
  <path
     style="fill:none;stroke:#0000ff;stroke-width:0.7086615"
     d="M 264.78178 0 L 264.78178 0 "
     id="path4654"
     transform="scale(0.2822222,0.2822222)" />
  <path
     style="fill:none;stroke:#0000ff;stroke-width:0.7086615"
     d="M 0 31.889766 L 177.16537 31.889766 L 264.78178 0 "
     id="path4652"
     transform="scale(0.2822222,0.2822222)" />
  <path
     style="fill:none;stroke:#0000ff;stroke-width:0.7086615"
     d="M 0 322.44096 L 177.16537 322.44096 L 264.78178 354.33073 "
     id="path4646"
     transform="scale(0.2822222,0.2822222)" />
  <path
     style="fill:none;stroke:#0000ff;stroke-width:0.7086615"
     d="M 0 35.433073 L 177.16537 35.433073 L 274.51693 0 "
     id="path4640"
     transform="scale(0.2822222,0.2822222)" />
  <path
     style="fill:none;stroke:#0000ff;stroke-width:0.7086615"
     d="M 0 318.89766 L 177.16537 318.89766 L 274.51693 354.33073 "
     id="path4634"
     transform="scale(0.2822222,0.2822222)" />
  <path
     style="fill:none;stroke:#0000ff;stroke-width:0.7086615"
     d="M 0 38.97638 L 177.16537 38.97638 L 284.25209 0 "
     id="path4628"
     transform="scale(0.2822222,0.2822222)" />
  <path
     style="fill:none;stroke:#0000ff;stroke-width:0.7086615"
     d="M 0 315.35435 L 177.16537 315.35435 L 284.25209 354.33073 "
     id="path4622"
     transform="scale(0.2822222,0.2822222)" />
  <path
     style="fill:none;stroke:#0000ff;stroke-width:0.7086615"
     d="M 0 42.519688 L 177.16537 42.519688 L 293.98725 0 "
     id="path4616"
     transform="scale(0.2822222,0.2822222)" />
  <path
     style="fill:none;stroke:#0000ff;stroke-width:0.7086615"
     d="M 0 311.81104 L 177.16537 311.81104 L 293.98725 354.33073 "
     id="path4610"
     transform="scale(0.2822222,0.2822222)" />
  <path
     style="fill:none;stroke:#0000ff;stroke-width:0.7086615"
     d="M 0 46.062995 L 177.16537 46.062995 L 303.7224 0 "
     id="path4604"
     transform="scale(0.2822222,0.2822222)" />
  <path
     style="fill:none;stroke:#0000ff;stroke-width:0.7086615"
     d="M 0 308.26774 L 177.16537 308.26774 L 303.7224 354.33073 "
     id="path4598"
     transform="scale(0.2822222,0.2822222)" />
  <path
     style="fill:none;stroke:#0000ff;stroke-width:0.7086615"
     d="M 0 49.606302 L 177.16537 49.606302 L 313.45756 0 "
     id="path4592"
     transform="scale(0.2822222,0.2822222)" />
  <path
     style="fill:none;stroke:#0000ff;stroke-width:0.7086615"
     d="M 0 304.72443 L 177.16537 304.72443 L 313.45756 354.33073 "
     id="path4586"
     transform="scale(0.2822222,0.2822222)" />
  <path
     style="fill:none;stroke:#0000ff;stroke-width:0.7086615"
     d="M 0 53.14961 L 177.16537 53.14961 L 323.19272 0 "
     id="path4580"
     transform="scale(0.2822222,0.2822222)" />
  <path
     style="fill:none;stroke:#0000ff;stroke-width:0.7086615"
     d="M 0 301.18112 L 177.16537 301.18112 L 323.19272 354.33073 "
     id="path4574"
     transform="scale(0.2822222,0.2822222)" />
  <path
     style="fill:none;stroke:#0000ff;stroke-width:0.7086615"
     d="M 0 56.692917 L 177.16537 56.692917 L 332.92788 0 "
     id="path4568"
     transform="scale(0.2822222,0.2822222)" />
  <path
     style="fill:none;stroke:#0000ff;stroke-width:0.7086615"
     d="M 0 297.63781 L 177.16537 297.63781 L 332.92788 354.33073 "
     id="path4562"
     transform="scale(0.2822222,0.2822222)" />
  <path
     style="fill:none;stroke:#0000ff;stroke-width:0.7086615"
     d="M 0 60.236224 L 177.16537 60.236224 L 340.99495 0.60713325 "
     id="path4556"
     transform="scale(0.2822222,0.2822222)" />
  <path
     style="fill:none;stroke:#0000ff;stroke-width:0.7086615"
     d="M 0 294.09451 L 177.16537 294.09451 L 340.99902 353.72508 "
     id="path4550"
     transform="scale(0.2822222,0.2822222)" />
  <path
     style="fill:none;stroke:#0000ff;stroke-width:0.7086615"
     d="M 0 63.779531 L 177.16537 63.779531 L 345.5581 2.4895898 "
     id="path4544"
     transform="scale(0.2822222,0.2822222)" />
  <path
     style="fill:none;stroke:#0000ff;stroke-width:0.7086615"
     d="M 0 290.5512 L 177.16537 290.5512 L 345.5581 351.84114 "
     id="path4538"
     transform="scale(0.2822222,0.2822222)" />
  <path
     style="fill:none;stroke:#0000ff;stroke-width:0.7086615"
     d="M 0 67.322839 L 177.16537 67.322839 L 348.77201 4.863127 "
     id="path4532"
     transform="scale(0.2822222,0.2822222)" />
  <path
     style="fill:none;stroke:#0000ff;stroke-width:0.7086615"
     d="M 0 287.00789 L 177.16537 287.00789 L 348.77201 349.4676 "
     id="path4526"
     transform="scale(0.2822222,0.2822222)" />
  <path
     style="fill:none;stroke:#0000ff;stroke-width:0.7086615"
     d="M 0 70.866146 L 177.16537 70.866146 L 351.11185 7.5548033 "
     id="path4520"
     transform="scale(0.2822222,0.2822222)" />
  <path
     style="fill:none;stroke:#0000ff;stroke-width:0.7086615"
     d="M 0 283.46458 L 177.16537 283.46458 L 351.11185 346.77593 "
     id="path4514"
     transform="scale(0.2822222,0.2822222)" />
  <path
     style="fill:none;stroke:#0000ff;stroke-width:0.7086615"
     d="M 0 74.409453 L 177.16537 74.409453 L 352.77241 10.493715 "
     id="path4508"
     transform="scale(0.2822222,0.2822222)" />
  <path
     style="fill:none;stroke:#0000ff;stroke-width:0.7086615"
     d="M 0 279.92128 L 177.16537 279.92128 L 352.77413 343.83764 "
     id="path4502"
     transform="scale(0.2822222,0.2822222)" />
  <path
     style="fill:none;stroke:#0000ff;stroke-width:0.7086615"
     d="M 0 77.952761 L 177.16537 77.952761 L 353.82504 13.653897 "
     id="path4496"
     transform="scale(0.2822222,0.2822222)" />
  <path
     style="fill:none;stroke:#0000ff;stroke-width:0.7086615"
     d="M 0 276.37797 L 177.16537 276.37797 L 353.82331 340.6762 "
     id="path4490"
     transform="scale(0.2822222,0.2822222)" />
  <path
     style="fill:none;stroke:#0000ff;stroke-width:0.7086615"
     d="M 0 81.496068 L 177.16537 81.496068 L 354.26221 17.038088 "
     id="path4484"
     transform="scale(0.2822222,0.2822222)" />
  <path
     style="fill:none;stroke:#0000ff;stroke-width:0.7086615"
     d="M 0 272.83466 L 177.16537 272.83466 L 354.26221 337.29264 "
     id="path4478"
     transform="scale(0.2822222,0.2822222)" />
  <path
     style="fill:none;stroke:#0000ff;stroke-width:0.7086615"
     d="M 0 85.039375 L 177.16537 85.039375 L 354.33073 20.556455 "
     id="path4472"
     transform="scale(0.2822222,0.2822222)" />
  <path
     style="fill:none;stroke:#0000ff;stroke-width:0.7086615"
     d="M 0 269.29136 L 177.16537 269.29136 L 354.33073 333.77428 "
     id="path4466"
     transform="scale(0.2822222,0.2822222)" />
  <path
     style="fill:none;stroke:#0000ff;stroke-width:0.7086615"
     d="M 0 88.582683 L 177.16537 88.582683 L 354.33073 24.099762 "
     id="path4460"
     transform="scale(0.2822222,0.2822222)" />
  <path
     style="fill:none;stroke:#0000ff;stroke-width:0.7086615"
     d="M 0 265.74805 L 177.16537 265.74805 L 354.33073 330.23097 "
     id="path4454"
     transform="scale(0.2822222,0.2822222)" />
  <path
     style="fill:none;stroke:#0000ff;stroke-width:0.7086615"
     d="M 0 92.12599 L 177.16537 92.12599 L 354.33073 27.643069 "
     id="path4448"
     transform="scale(0.2822222,0.2822222)" />
  <path
     style="fill:none;stroke:#0000ff;stroke-width:0.7086615"
     d="M 0 262.20474 L 177.16537 262.20474 L 354.33073 326.68766 "
     id="path4442"
     transform="scale(0.2822222,0.2822222)" />
  <path
     style="fill:none;stroke:#0000ff;stroke-width:0.7086615"
     d="M 0 95.669297 L 177.16537 95.669297 L 354.33073 31.186377 "
     id="path4436"
     transform="scale(0.2822222,0.2822222)" />
  <path
     style="fill:none;stroke:#0000ff;stroke-width:0.7086615"
     d="M 0 258.66143 L 177.16537 258.66143 L 354.33073 323.14435 "
     id="path4430"
     transform="scale(0.2822222,0.2822222)" />
  <path
     style="fill:none;stroke:#0000ff;stroke-width:0.7086615"
     d="M 0 99.212605 L 177.16537 99.212605 L 354.33073 34.729684 "
     id="path4424"
     transform="scale(0.2822222,0.2822222)" />
  <path
     style="fill:none;stroke:#0000ff;stroke-width:0.7086615"
     d="M 0 99.212605 L 0 99.212605 "
     id="path4422"
     transform="scale(0.2822222,0.2822222)" />
  <path
     style="fill:none;stroke:#0000ff;stroke-width:0.7086615"
     d="M 0 255.11813 L 177.16537 255.11813 L 354.33073 319.60105 "
     id="path4418"
     transform="scale(0.2822222,0.2822222)" />
  <path
     style="fill:none;stroke:#0000ff;stroke-width:0.7086615"
     d="M 0 102.75591 L 177.16537 102.75591 L 354.33073 38.272991 "
     id="path4412"
     transform="scale(0.2822222,0.2822222)" />
  <path
     style="fill:none;stroke:#0000ff;stroke-width:0.7086615"
     d="M 0 102.75591 L 0 102.75591 "
     id="path4410"
     transform="scale(0.2822222,0.2822222)" />
  <path
     style="fill:none;stroke:#0000ff;stroke-width:0.7086615"
     d="M 0 251.57482 L 177.16537 251.57482 L 354.33073 316.05774 "
     id="path4406"
     transform="scale(0.2822222,0.2822222)" />
  <path
     style="fill:none;stroke:#0000ff;stroke-width:0.7086615"
     d="M 0 106.29922 L 177.16537 106.29922 L 354.33073 41.816299 "
     id="path4400"
     transform="scale(0.2822222,0.2822222)" />
  <path
     style="fill:none;stroke:#0000ff;stroke-width:0.7086615"
     d="M 0 106.29922 L 0 106.29922 "
     id="path4398"
     transform="scale(0.2822222,0.2822222)" />
  <path
     style="fill:none;stroke:#0000ff;stroke-width:0.7086615"
     d="M 0 248.03151 L 177.16537 248.03151 L 354.33073 312.51443 "
     id="path4394"
     transform="scale(0.2822222,0.2822222)" />
  <path
     style="fill:none;stroke:#0000ff;stroke-width:0.7086615"
     d="M 0 109.84253 L 177.16537 109.84253 L 354.33073 45.359606 "
     id="path4388"
     transform="scale(0.2822222,0.2822222)" />
  <path
     style="fill:none;stroke:#0000ff;stroke-width:0.7086615"
     d="M 0 109.84253 L 0 109.84253 "
     id="path4386"
     transform="scale(0.2822222,0.2822222)" />
  <path
     style="fill:none;stroke:#0000ff;stroke-width:0.7086615"
     d="M 354.33073 308.97112 L 354.33073 308.97112 "
     id="path4384"
     transform="scale(0.2822222,0.2822222)" />
  <path
     style="fill:none;stroke:#0000ff;stroke-width:0.7086615"
     d="M 0 244.4882 L 177.16537 244.4882 L 354.33073 308.97112 "
     id="path4382"
     transform="scale(0.2822222,0.2822222)" />
  <path
     style="fill:none;stroke:#0000ff;stroke-width:0.7086615"
     d="M 0 113.38583 L 177.16537 113.38583 L 354.33073 48.902913 "
     id="path4376"
     transform="scale(0.2822222,0.2822222)" />
  <path
     style="fill:none;stroke:#0000ff;stroke-width:0.7086615"
     d="M 0 113.38583 L 0 113.38583 "
     id="path4374"
     transform="scale(0.2822222,0.2822222)" />
  <path
     style="fill:none;stroke:#0000ff;stroke-width:0.7086615"
     d="M 354.33073 305.42782 L 354.33073 305.42782 "
     id="path4372"
     transform="scale(0.2822222,0.2822222)" />
  <path
     style="fill:none;stroke:#0000ff;stroke-width:0.7086615"
     d="M 0 240.9449 L 177.16537 240.9449 L 354.33073 305.42782 "
     id="path4370"
     transform="scale(0.2822222,0.2822222)" />
  <path
     style="fill:none;stroke:#0000ff;stroke-width:0.7086615"
     d="M 0 116.92914 L 177.16537 116.92914 L 354.33073 52.446221 "
     id="path4364"
     transform="scale(0.2822222,0.2822222)" />
  <path
     style="fill:none;stroke:#0000ff;stroke-width:0.7086615"
     d="M 0 116.92914 L 0 116.92914 "
     id="path4362"
     transform="scale(0.2822222,0.2822222)" />
  <path
     style="fill:none;stroke:#0000ff;stroke-width:0.7086615"
     d="M 354.33073 301.88451 L 354.33073 301.88451 "
     id="path4360"
     transform="scale(0.2822222,0.2822222)" />
  <path
     style="fill:none;stroke:#0000ff;stroke-width:0.7086615"
     d="M 0 237.40159 L 177.16537 237.40159 L 354.33073 301.88451 "
     id="path4358"
     transform="scale(0.2822222,0.2822222)" />
  <path
     style="fill:none;stroke:#0000ff;stroke-width:0.7086615"
     d="M 0 120.47245 L 177.16537 120.47245 L 354.33073 55.989528 "
     id="path4352"
     transform="scale(0.2822222,0.2822222)" />
  <path
     style="fill:none;stroke:#0000ff;stroke-width:0.7086615"
     d="M 0 120.47245 L 0 120.47245 "
     id="path4350"
     transform="scale(0.2822222,0.2822222)" />
  <path
     style="fill:none;stroke:#0000ff;stroke-width:0.7086615"
     d="M 354.33073 298.3412 L 354.33073 298.3412 "
     id="path4348"
     transform="scale(0.2822222,0.2822222)" />
  <path
     style="fill:none;stroke:#0000ff;stroke-width:0.7086615"
     d="M 0 233.85828 L 177.16537 233.85828 L 354.33073 298.3412 "
     id="path4346"
     transform="scale(0.2822222,0.2822222)" />
  <path
     style="fill:none;stroke:#0000ff;stroke-width:0.7086615"
     d="M 0 124.01576 L 177.16537 124.01576 L 354.33073 59.532835 "
     id="path4340"
     transform="scale(0.2822222,0.2822222)" />
  <path
     style="fill:none;stroke:#0000ff;stroke-width:0.7086615"
     d="M 0 124.01576 L 0 124.01576 "
     id="path4338"
     transform="scale(0.2822222,0.2822222)" />
  <path
     style="fill:none;stroke:#0000ff;stroke-width:0.7086615"
     d="M 354.33073 294.7979 L 354.33073 294.7979 "
     id="path4336"
     transform="scale(0.2822222,0.2822222)" />
  <path
     style="fill:none;stroke:#0000ff;stroke-width:0.7086615"
     d="M 0 230.31497 L 177.16537 230.31497 L 354.33073 294.7979 "
     id="path4334"
     transform="scale(0.2822222,0.2822222)" />
  <path
     style="fill:none;stroke:#0000ff;stroke-width:0.7086615"
     d="M 0 127.55906 L 177.16537 127.55906 L 354.33073 63.076142 "
     id="path4328"
     transform="scale(0.2822222,0.2822222)" />
  <path
     style="fill:none;stroke:#0000ff;stroke-width:0.7086615"
     d="M 0 127.55906 L 0 127.55906 "
     id="path4326"
     transform="scale(0.2822222,0.2822222)" />
  <path
     style="fill:none;stroke:#0000ff;stroke-width:0.7086615"
     d="M 354.33073 291.25459 L 354.33073 291.25459 "
     id="path4324"
     transform="scale(0.2822222,0.2822222)" />
  <path
     style="fill:none;stroke:#0000ff;stroke-width:0.7086615"
     d="M 0 226.77167 L 177.16537 226.77167 L 354.33073 291.25459 "
     id="path4322"
     transform="scale(0.2822222,0.2822222)" />
  <path
     style="fill:none;stroke:#0000ff;stroke-width:0.7086615"
     d="M 0 131.10237 L 177.16537 131.10237 L 354.33073 66.61945 "
     id="path4316"
     transform="scale(0.2822222,0.2822222)" />
  <path
     style="fill:none;stroke:#0000ff;stroke-width:0.7086615"
     d="M 0 131.10237 L 0 131.10237 "
     id="path4314"
     transform="scale(0.2822222,0.2822222)" />
  <path
     style="fill:none;stroke:#0000ff;stroke-width:0.7086615"
     d="M 354.33073 287.71128 L 354.33073 287.71128 "
     id="path4312"
     transform="scale(0.2822222,0.2822222)" />
  <path
     style="fill:none;stroke:#0000ff;stroke-width:0.7086615"
     d="M 0 223.22836 L 177.16537 223.22836 L 354.33073 287.71128 "
     id="path4310"
     transform="scale(0.2822222,0.2822222)" />
  <path
     style="fill:none;stroke:#0000ff;stroke-width:0.7086615"
     d="M 0 134.64568 L 177.16537 134.64568 L 354.33073 70.162757 "
     id="path4304"
     transform="scale(0.2822222,0.2822222)" />
  <path
     style="fill:none;stroke:#0000ff;stroke-width:0.7086615"
     d="M 0 134.64568 L 0 134.64568 "
     id="path4302"
     transform="scale(0.2822222,0.2822222)" />
  <path
     style="fill:none;stroke:#0000ff;stroke-width:0.7086615"
     d="M 354.33073 284.16797 L 354.33073 284.16797 "
     id="path4300"
     transform="scale(0.2822222,0.2822222)" />
  <path
     style="fill:none;stroke:#0000ff;stroke-width:0.7086615"
     d="M 0 219.68505 L 177.16537 219.68505 L 354.33073 284.16797 "
     id="path4298"
     transform="scale(0.2822222,0.2822222)" />
  <path
     style="fill:none;stroke:#0000ff;stroke-width:0.7086615"
     d="M 354.33073 73.706064 L 354.33073 73.706064 "
     id="path4294"
     transform="scale(0.2822222,0.2822222)" />
  <path
     style="fill:none;stroke:#0000ff;stroke-width:0.7086615"
     d="M 0 138.18898 L 177.16537 138.18898 L 354.33073 73.706064 "
     id="path4292"
     transform="scale(0.2822222,0.2822222)" />
  <path
     style="fill:none;stroke:#0000ff;stroke-width:0.7086615"
     d="M 0 138.18898 L 0 138.18898 "
     id="path4290"
     transform="scale(0.2822222,0.2822222)" />
  <path
     style="fill:none;stroke:#0000ff;stroke-width:0.7086615"
     d="M 354.33073 280.62467 L 354.33073 280.62467 "
     id="path4288"
     transform="scale(0.2822222,0.2822222)" />
  <path
     style="fill:none;stroke:#0000ff;stroke-width:0.7086615"
     d="M 0 216.14175 L 177.16537 216.14175 L 354.33073 280.62467 "
     id="path4286"
     transform="scale(0.2822222,0.2822222)" />
  <path
     style="fill:none;stroke:#0000ff;stroke-width:0.7086615"
     d="M 354.33073 77.249372 L 354.33073 77.249372 "
     id="path4282"
     transform="scale(0.2822222,0.2822222)" />
  <path
     style="fill:none;stroke:#0000ff;stroke-width:0.7086615"
     d="M 0 141.73229 L 177.16537 141.73229 L 354.33073 77.249372 "
     id="path4280"
     transform="scale(0.2822222,0.2822222)" />
  <path
     style="fill:none;stroke:#0000ff;stroke-width:0.7086615"
     d="M 0 141.73229 L 0 141.73229 "
     id="path4278"
     transform="scale(0.2822222,0.2822222)" />
  <path
     style="fill:none;stroke:#0000ff;stroke-width:0.7086615"
     d="M 354.33073 277.08136 L 354.33073 277.08136 "
     id="path4276"
     transform="scale(0.2822222,0.2822222)" />
  <path
     style="fill:none;stroke:#0000ff;stroke-width:0.7086615"
     d="M 0 212.59844 L 177.16537 212.59844 L 354.33073 277.08136 "
     id="path4274"
     transform="scale(0.2822222,0.2822222)" />
  <path
     style="fill:none;stroke:#0000ff;stroke-width:0.7086615"
     d="M 354.33073 80.792679 L 354.33073 80.792679 "
     id="path4270"
     transform="scale(0.2822222,0.2822222)" />
  <path
     style="fill:none;stroke:#0000ff;stroke-width:0.7086615"
     d="M 0 145.2756 L 177.16537 145.2756 L 354.33073 80.792679 "
     id="path4268"
     transform="scale(0.2822222,0.2822222)" />
  <path
     style="fill:none;stroke:#0000ff;stroke-width:0.7086615"
     d="M 0 145.2756 L 0 145.2756 "
     id="path4266"
     transform="scale(0.2822222,0.2822222)" />
  <path
     style="fill:none;stroke:#0000ff;stroke-width:0.7086615"
     d="M 354.33073 273.53805 L 354.33073 273.53805 "
     id="path4264"
     transform="scale(0.2822222,0.2822222)" />
  <path
     style="fill:none;stroke:#0000ff;stroke-width:0.7086615"
     d="M 0 209.05513 L 177.16537 209.05513 L 354.33073 273.53805 "
     id="path4262"
     transform="scale(0.2822222,0.2822222)" />
  <path
     style="fill:none;stroke:#0000ff;stroke-width:0.7086615"
     d="M 354.33073 84.335986 L 354.33073 84.335986 "
     id="path4258"
     transform="scale(0.2822222,0.2822222)" />
  <path
     style="fill:none;stroke:#0000ff;stroke-width:0.7086615"
     d="M 0 148.81891 L 177.16537 148.81891 L 354.33073 84.335986 "
     id="path4256"
     transform="scale(0.2822222,0.2822222)" />
  <path
     style="fill:none;stroke:#0000ff;stroke-width:0.7086615"
     d="M 0 148.81891 L 0 148.81891 "
     id="path4254"
     transform="scale(0.2822222,0.2822222)" />
  <path
     style="fill:none;stroke:#0000ff;stroke-width:0.7086615"
     d="M 354.33073 269.99474 L 354.33073 269.99474 "
     id="path4252"
     transform="scale(0.2822222,0.2822222)" />
  <path
     style="fill:none;stroke:#0000ff;stroke-width:0.7086615"
     d="M 0 205.51182 L 177.16537 205.51182 L 354.33073 269.99474 "
     id="path4250"
     transform="scale(0.2822222,0.2822222)" />
  <path
     style="fill:none;stroke:#0000ff;stroke-width:0.7086615"
     d="M 354.33073 87.879294 L 354.33073 87.879294 "
     id="path4246"
     transform="scale(0.2822222,0.2822222)" />
  <path
     style="fill:none;stroke:#0000ff;stroke-width:0.7086615"
     d="M 0 152.36221 L 177.16537 152.36221 L 354.33073 87.879294 "
     id="path4244"
     transform="scale(0.2822222,0.2822222)" />
  <path
     style="fill:none;stroke:#0000ff;stroke-width:0.7086615"
     d="M 0 152.36221 L 0 152.36221 "
     id="path4242"
     transform="scale(0.2822222,0.2822222)" />
  <path
     style="fill:none;stroke:#0000ff;stroke-width:0.7086615"
     d="M 354.33073 266.45144 L 354.33073 266.45144 "
     id="path4240"
     transform="scale(0.2822222,0.2822222)" />
  <path
     style="fill:none;stroke:#0000ff;stroke-width:0.7086615"
     d="M 0 201.96852 L 177.16537 201.96852 L 354.33073 266.45144 "
     id="path4238"
     transform="scale(0.2822222,0.2822222)" />
  <path
     style="fill:none;stroke:#0000ff;stroke-width:0.7086615"
     d="M 354.33073 91.422601 L 354.33073 91.422601 "
     id="path4234"
     transform="scale(0.2822222,0.2822222)" />
  <path
     style="fill:none;stroke:#0000ff;stroke-width:0.7086615"
     d="M 0 155.90552 L 177.16537 155.90552 L 354.33073 91.422601 "
     id="path4232"
     transform="scale(0.2822222,0.2822222)" />
  <path
     style="fill:none;stroke:#0000ff;stroke-width:0.7086615"
     d="M 354.33073 262.90813 L 354.33073 262.90813 "
     id="path4228"
     transform="scale(0.2822222,0.2822222)" />
  <path
     style="fill:none;stroke:#0000ff;stroke-width:0.7086615"
     d="M 0 198.42521 L 177.16537 198.42521 L 354.33073 262.90813 "
     id="path4226"
     transform="scale(0.2822222,0.2822222)" />
  <path
     style="fill:none;stroke:#0000ff;stroke-width:0.7086615"
     d="M 354.33073 94.965908 L 354.33073 94.965908 "
     id="path4222"
     transform="scale(0.2822222,0.2822222)" />
  <path
     style="fill:none;stroke:#0000ff;stroke-width:0.7086615"
     d="M 0 159.44883 L 177.16537 159.44883 L 354.33073 94.965908 "
     id="path4220"
     transform="scale(0.2822222,0.2822222)" />
  <path
     style="fill:none;stroke:#0000ff;stroke-width:0.7086615"
     d="M 354.33073 259.36482 L 354.33073 259.36482 "
     id="path4216"
     transform="scale(0.2822222,0.2822222)" />
  <path
     style="fill:none;stroke:#0000ff;stroke-width:0.7086615"
     d="M 0 194.8819 L 177.16537 194.8819 L 354.33073 259.36482 "
     id="path4214"
     transform="scale(0.2822222,0.2822222)" />
  <path
     style="fill:none;stroke:#0000ff;stroke-width:0.7086615"
     d="M 354.33073 98.509216 L 354.33073 98.509216 "
     id="path4210"
     transform="scale(0.2822222,0.2822222)" />
  <path
     style="fill:none;stroke:#0000ff;stroke-width:0.7086615"
     d="M 0 162.99214 L 177.16537 162.99214 L 354.33073 98.509216 "
     id="path4208"
     transform="scale(0.2822222,0.2822222)" />
  <path
     style="fill:none;stroke:#0000ff;stroke-width:0.7086615"
     d="M 354.33073 255.82151 L 354.33073 255.82151 "
     id="path4204"
     transform="scale(0.2822222,0.2822222)" />
  <path
     style="fill:none;stroke:#0000ff;stroke-width:0.7086615"
     d="M 0 191.33859 L 177.16537 191.33859 L 354.33073 255.82151 "
     id="path4202"
     transform="scale(0.2822222,0.2822222)" />
  <path
     style="fill:none;stroke:#0000ff;stroke-width:0.7086615"
     d="M 354.33073 102.05252 L 354.33073 102.05252 "
     id="path4198"
     transform="scale(0.2822222,0.2822222)" />
  <path
     style="fill:none;stroke:#0000ff;stroke-width:0.7086615"
     d="M 0 166.53544 L 177.16537 166.53544 L 354.33073 102.05252 "
     id="path4196"
     transform="scale(0.2822222,0.2822222)" />
  <path
     style="fill:none;stroke:#0000ff;stroke-width:0.7086615"
     d="M 354.33073 252.27821 L 354.33073 252.27821 "
     id="path4192"
     transform="scale(0.2822222,0.2822222)" />
  <path
     style="fill:none;stroke:#0000ff;stroke-width:0.7086615"
     d="M 0 187.79529 L 177.16537 187.79529 L 354.33073 252.27821 "
     id="path4190"
     transform="scale(0.2822222,0.2822222)" />
  <path
     style="fill:none;stroke:#0000ff;stroke-width:0.7086615"
     d="M 354.33073 105.59583 L 354.33073 105.59583 "
     id="path4186"
     transform="scale(0.2822222,0.2822222)" />
  <path
     style="fill:none;stroke:#0000ff;stroke-width:0.7086615"
     d="M 0 170.07875 L 177.16537 170.07875 L 354.33073 105.59583 "
     id="path4184"
     transform="scale(0.2822222,0.2822222)" />
  <path
     style="fill:none;stroke:#0000ff;stroke-width:0.7086615"
     d="M 354.33073 248.7349 L 354.33073 248.7349 "
     id="path4180"
     transform="scale(0.2822222,0.2822222)" />
  <path
     style="fill:none;stroke:#0000ff;stroke-width:0.7086615"
     d="M 0 184.25198 L 177.16537 184.25198 L 354.33073 248.7349 "
     id="path4178"
     transform="scale(0.2822222,0.2822222)" />
  <path
     style="fill:none;stroke:#0000ff;stroke-width:0.7086615"
     d="M 354.33073 109.13914 L 354.33073 109.13914 "
     id="path4174"
     transform="scale(0.2822222,0.2822222)" />
  <path
     style="fill:none;stroke:#0000ff;stroke-width:0.7086615"
     d="M 0 173.62206 L 177.16537 173.62206 L 354.33073 109.13914 "
     id="path4172"
     transform="scale(0.2822222,0.2822222)" />
  <path
     style="fill:none;stroke:#0000ff;stroke-width:0.7086615"
     d="M 354.33073 245.19159 L 354.33073 245.19159 "
     id="path4168"
     transform="scale(0.2822222,0.2822222)" />
  <path
     style="fill:none;stroke:#0000ff;stroke-width:0.7086615"
     d="M 0 180.70867 L 177.16537 180.70867 L 354.33073 245.19159 "
     id="path4166"
     transform="scale(0.2822222,0.2822222)" />
  <path
     style="fill:none;stroke:#0000ff;stroke-width:0.7086615"
     d="M 354.33073 112.68244 L 354.33073 112.68244 "
     id="path4162"
     transform="scale(0.2822222,0.2822222)" />
  <path
     style="fill:none;stroke:#0000ff;stroke-width:0.7086615"
     d="M 177.16537 177.16537 L 354.33073 112.68244 "
     id="path4160"
     transform="scale(0.2822222,0.2822222)" />
  <path
     style="fill:none;stroke:#0000ff;stroke-width:0.7086615"
     d="M 354.33073 241.64829 L 354.33073 241.64829 "
     id="path4158"
     transform="scale(0.2822222,0.2822222)" />
  <path
     style="fill:none;stroke:#0000ff;stroke-width:0.7086615"
     d="M 0 177.16537 L 177.16537 177.16537 L 354.33073 241.64829 "
     id="path4156"
     transform="scale(0.2822222,0.2822222)" />
  <rect
     style="fill:none;stroke:#ff0000;stroke-width:0.2"
     height="100"
     rx="4.9999995"
     ry="4.9999995"
     width="100"
     x="7.1054274e-15"
     y="-6.1459009e-06"
     id="rect8-2" />
</svg>
